<?xml version="1.0" encoding="UTF-8"?>
<svg width="48px" height="46px" viewBox="0 0 48 46" version="1.1" xmlns="http://www.w3.org/2000/svg" xmlns:xlink="http://www.w3.org/1999/xlink">
    <!-- Generator: Sketch 46.2 (44496) - http://www.bohemiancoding.com/sketch -->
    <title>Blurple Logo</title>
    <desc>Created with Sketch.</desc>
    <defs>
        <polygon id="path-1" points="0 46 0 0 48 0 48 46"></polygon>
    </defs>
    <g id="Log-In-Modal" stroke="none" stroke-width="1" fill="none" fill-rule="evenodd">
        <g id="Login-Modal-QR" transform="translate(-277.000000, -63.000000)">
            <g id="Blurple-Logo" transform="translate(277.000000, 63.000000)">
                <mask id="mask-2" fill="white">
                    <use xlink:href="#path-1"></use>
                </mask>
                <g id="Clip-2"></g>
                <path d="M34.4037645,36.4122063 C32.3005365,37.3273094 28.801758,37.9483793 24.7893852,38.020816 C24.7858644,38.0212446 24.7823436,38.0212446 24.7788229,38.0212446 C24.5244462,38.0259594 24.2687494,38.0285312 24.0104119,38.0285312 L23.9998495,38.0285312 L23.9901674,38.0285312 C23.7318299,38.0285312 23.4756929,38.0259594 23.2213163,38.0212446 C23.2177955,38.0212446 23.2142747,38.0212446 23.2107539,38.020816 C19.1983811,37.9483793 15.6996026,37.3273094 13.5963746,36.4122063 C10.6384764,35.3230837 8.78830475,33.7761953 8.78830475,32.0587162 C8.78830475,29.9773391 11.5054694,28.147133 15.6195048,27.0790128 C15.8109474,27.4784863 16.0265954,27.8646727 16.2734903,28.2302852 C12.3478168,29.1925364 10.1085985,30.7874303 10.1085985,32.0587162 C10.1085985,32.6664989 10.6191121,33.3484329 11.5807261,34.0003634 C12.0934402,32.6549262 15.1437589,31.5332285 19.3114863,31.0433162 C20.6885527,31.8362626 22.2878686,32.3000291 23.9998495,32.3000291 C25.7122706,32.3000291 27.3120265,31.8362626 28.6886528,31.0433162 C32.8563802,31.5332285 35.906699,32.6549262 36.4198531,34.0003634 C37.381027,33.3484329 37.8919807,32.6664989 37.8919807,32.0587162 C37.8919807,30.7874303 35.6527625,29.1925364 31.7266488,28.2302852 C31.9739839,27.8646727 32.1896319,27.4784863 32.3801943,27.0790128 C36.4946698,28.1475616 39.2122745,29.9773391 39.2122745,32.0587162 C39.2122745,33.7761953 37.3616627,35.3230837 34.4037645,36.4122063 M23.9998495,16.2135038 C28.0144228,16.2135038 31.2685069,19.3827178 31.2685069,23.2921579 C31.2685069,27.2020266 28.0144228,30.3712406 23.9998495,30.3712406 C19.9857163,30.3712406 16.7316322,27.2020266 16.7316322,23.2921579 C16.7316322,19.3827178 19.9857163,16.2135038 23.9998495,16.2135038 M47.6564334,34.1760975 L25.8288965,0.974359691 C24.9742263,-0.324786564 23.0254727,-0.324786564 22.1716827,0.974359691 L0.343265609,34.1760975 C-0.389937538,35.2917945 0.0985711616,36.7821051 1.36033192,37.2771609 L23.1883089,45.8469828 C23.7089448,46.0510057 24.2907542,46.0510057 24.8118302,45.8469828 L46.6398072,37.2771609 C47.901568,36.7821051 48.3900767,35.2917945 47.6564334,34.1760975" id="Fill-1" fill="#5C50CA" mask="url(#mask-2)"></path>
            </g>
        </g>
    </g>
</svg>