<?xml version="1.0" encoding="UTF-8"?>
<svg width="26px" height="25px" viewBox="0 0 26 25" version="1.1" xmlns="http://www.w3.org/2000/svg" xmlns:xlink="http://www.w3.org/1999/xlink">
  <!-- Generator: Sketch 46.2 (44496) - http://www.bohemiancoding.com/sketch -->
  <title>White Logo</title>
  <desc>Created with Sketch.</desc>
  <defs>
    <polygon id="path-1" points="0 25 0 0 26 0 26 25"></polygon>
  </defs>
    <g id="Log-In-Modal" stroke="none" stroke-width="1" fill="none" fill-rule="evenodd">
        <g id="Login-Modal-Button" transform="translate(-200.000000, -174.000000)">
            <g id="White-Logo" transform="translate(200.000000, 174.000000)">
                <mask id="mask-2" fill="white">
                    <use xlink:href="#path-1"></use>
                </mask>
                <g id="Clip-2"></g>
                <path d="M18.6353725,19.7892426 C17.496124,20.2865812 15.6009523,20.6241192 13.4275837,20.663487 C13.4256766,20.6637199 13.4237695,20.6637199 13.4218624,20.6637199 C13.2840751,20.6662823 13.1455726,20.66768 13.0056398,20.66768 L12.9999185,20.66768 L12.994674,20.66768 C12.8547412,20.66768 12.7160003,20.6662823 12.578213,20.6637199 C12.5763059,20.6637199 12.5743988,20.6637199 12.5724917,20.663487 C10.3991231,20.6241192 8.50395141,20.2865812 7.36470291,19.7892426 C5.76250807,19.1973281 4.76033174,18.3566279 4.76033174,17.4232153 C4.76033174,16.2920321 6.23212923,15.2973549 8.46056509,14.7168548 C8.56426316,14.93396 8.68107249,15.1438438 8.81480725,15.3425463 C6.68840076,15.8655089 5.47549087,16.7322991 5.47549087,17.4232153 C5.47549087,17.753532 5.75201907,18.1241483 6.2728933,18.4784584 C6.55061343,17.7472425 8.20286941,17.1376242 10.4603884,16.8713675 C11.2062994,17.3023166 12.0725955,17.5543637 12.9999185,17.5543637 C13.9274799,17.5543637 14.7940144,17.3023166 15.539687,16.8713675 C17.797206,17.1376242 19.4494619,17.7472425 19.7274205,18.4784584 C20.2480563,18.1241483 20.5248229,17.753532 20.5248229,17.4232153 C20.5248229,16.7322991 19.311913,15.8655089 17.1852681,15.3425463 C17.3192413,15.1438438 17.4360506,14.93396 17.5392719,14.7168548 C19.7679461,15.2975878 21.239982,16.2920321 21.239982,17.4232153 C21.239982,18.3566279 20.2375673,19.1973281 18.6353725,19.7892426 M12.9999185,8.81168687 C15.174479,8.81168687 16.9371079,10.5340857 16.9371079,12.6587815 C16.9371079,14.7837101 15.174479,16.506109 12.9999185,16.506109 C10.8255963,16.506109 9.06296746,14.7837101 9.06296746,12.6587815 C9.06296746,10.5340857 10.8255963,8.81168687 12.9999185,8.81168687 M25.8139014,18.573966 L13.9906523,0.52954331 C13.5277059,-0.176514437 12.4721311,-0.176514437 12.0096615,0.52954331 L0.185935538,18.573966 C-0.211216167,19.1803231 0.0533927125,19.9902745 0.736846457,20.2593266 L12.560334,24.9168385 C12.8423451,25.0277205 13.1574919,25.0277205 13.4397414,24.9168385 L25.2632289,20.2593266 C25.9466827,19.9902745 26.2112915,19.1803231 25.8139014,18.573966" id="Fill-1" fill="#FFFFFF" mask="url(#mask-2)"></path>
            </g>
        </g>
    </g>
</svg>